<?xml version="1.0" encoding="utf-8"?>
<!-- Generator: Adobe Illustrator 22.1.0, SVG Export Plug-In . SVG Version: 6.00 Build 0)  -->
<svg version="1.1"
	 id="svg6" inkscape:version="0.91 r13725" sodipodi:docname="Paris logo 2019.svg" xmlns:cc="http://creativecommons.org/ns#" xmlns:dc="http://purl.org/dc/elements/1.1/" xmlns:inkscape="http://www.inkscape.org/namespaces/inkscape" xmlns:rdf="http://www.w3.org/1999/02/22-rdf-syntax-ns#" xmlns:sodipodi="http://sodipodi.sourceforge.net/DTD/sodipodi-0.dtd" xmlns:svg="http://www.w3.org/2000/svg"
	 xmlns="http://www.w3.org/2000/svg" xmlns:xlink="http://www.w3.org/1999/xlink" x="0px" y="0px" width="400px" height="351.6px"
	 viewBox="0 0 400 351.6" style="enable-background:new 0 0 400 351.6;" xml:space="preserve">
<style type="text/css">
	.st0{fill:#002542;}
</style>
<sodipodi:namedview  bordercolor="#666666" borderopacity="1" fit-margin-bottom="0" fit-margin-left="0" fit-margin-right="0" fit-margin-top="0" gridtolerance="10" guidetolerance="10" id="namedview8" inkscape:current-layer="svg6" inkscape:cx="368.21696" inkscape:cy="526.61287" inkscape:pageopacity="0" inkscape:pageshadow="2" inkscape:window-height="705" inkscape:window-maximized="1" inkscape:window-width="1366" inkscape:window-x="-8" inkscape:window-y="-8" inkscape:zoom="0.47990354" objecttolerance="10" pagecolor="#ffffff" showgrid="false">
	</sodipodi:namedview>
<title  id="title2">logo-paris</title>
<path id="path4" inkscape:connector-curvature="0" sodipodi:nodetypes="sccccssssccsssccccccccccccccccsccssscccccccccccccccssccsssssccscc" class="st0" d="
	M37.6,250.2H0v99.4h22.8v-31.2h15c19.6,0,34.7-15.2,34.7-34.1S57.3,250.2,37.6,250.2z M37.6,297.1h-15v-25.5h15
	c7,0,12.1,5.5,12.1,12.8S44.6,297.1,37.6,297.1z M280.4,250.2h22.8v99.4h-22.8V250.2z M256.4,284.3c0.1-18.9-15.2-34.1-34.1-34.1
	h-39.7v99.4h22.8v-31.2h11.5l17.9,31.2h24.4l-20.9-36C249.4,308.5,256.4,296.5,256.4,284.3z M222.4,298.6h-17v-27h17
	c6.3,0,11.3,5.8,11.3,13.5S228.7,298.6,222.4,298.6z M105.9,250.2l-33.8,99.4H97l5.5-17.5c11.7,2.9,23.9,2.9,35.6,0l5.6,17.5h24.8
	l-33.8-99.4H105.9z M120.3,314.4c-4,0-7.9-0.4-11.8-1.4l11.8-36.8L132,313C128.2,313.9,124.2,314.4,120.3,314.4L120.3,314.4z
	 M371.9,291.5c-15.4-4.6-21.7-7.3-21.7-13.5c0-4.7,4.5-7.5,10.7-7.5c9.9,0,14,5.3,17.4,10.2l18.9-10c-3.2-6.3-12.4-22.4-36.3-22.4
	c-16.8,0-33.3,10.7-33.3,30.2c0,23.4,22.3,27.8,29.2,30.2c6.9,2.4,20.6,4.2,20.6,12.6c0,5.9-6.2,8.1-14.2,8.1
	c-8.9,0-16.1-4.9-20.5-12.5l-19.4,10.1c1.4,4.2,12.8,24.5,39.7,24.5c21.2,0,36.9-11.2,36.9-30.6C400,305.8,391.7,297.3,371.9,291.5
	L371.9,291.5z"/>
<path id="path4-0" inkscape:connector-curvature="0" sodipodi:nodetypes="accccsscccccccsscccsca" class="st0" d="M322.5,135.9
	c-0.9,0-1.6,0.8-2.7,3c-22.6,49.5-64.3,73.2-108.3,73.5c-87.9,0.6-108.6-71.6-109.1-73.7l44.8,8.3c0.2,0.5,17.4,40,62.7,40
	c48,0,81.2-47.8,81.2-97.2c0-44.5-18.8-69.9-45.9-89.8L123.1,56.4c-1.1,0.5-0.9,2.2,0.3,2.4c67.6,15.7,79.2,64.3,75.9,91.9
	c-0.5,4.1,2.2,3.4,4.9-4.2c9.2-27.4,2.7-67.2-34-89.7c0,0,67.9-34,67.9-33.9c8.2,6.3,34.8,24.3,34.8,67.1s-24.8,81.7-62.9,81.7
	c-37.8,0-50.9-38.6-51.3-39.2l-80.7-17.6c-1.3-0.3-2.5,0.7-2.4,2c7.1,61.6,56.3,111.9,127.7,111.9c59.2,0,99.5-32.6,116.6-78.5
	C323.9,139.7,323.7,135.9,322.5,135.9L322.5,135.9z"/>
</svg>
